<?xml version="1.0" standalone="no"?>
<!DOCTYPE svg PUBLIC "-//W3C//DTD SVG 20010904//EN"
 "http://www.w3.org/TR/2001/REC-SVG-20010904/DTD/svg10.dtd">
<svg version="1.0" xmlns="http://www.w3.org/2000/svg"
 width="512.000000pt" height="512.000000pt" viewBox="0 0 512.000000 512.000000"
 preserveAspectRatio="xMidYMid meet">

<g transform="translate(0.000000,512.000000) scale(0.100000,-0.100000)"
fill="#000000" stroke="none">
<path d="M2458 4660 c-42 -23 -80 -69 -97 -119 -7 -22 -11 -135 -11 -330 0
-292 1 -297 24 -348 32 -69 87 -105 165 -111 85 -6 152 32 192 110 17 34 19
62 19 352 0 198 -4 325 -11 343 -14 38 -67 92 -106 109 -47 20 -131 17 -175
-6z m130 -142 c17 -17 17 -589 0 -606 -17 -17 -48 -15 -70 5 -17 15 -18 38
-18 295 0 173 4 287 10 299 12 22 59 26 78 7z"/>
<path d="M1441 4455 c-88 -27 -149 -120 -138 -211 4 -35 38 -104 151 -302 88
-153 161 -269 181 -288 85 -76 205 -68 282 19 48 55 64 124 41 187 -19 55
-287 512 -321 548 -19 19 -51 38 -81 47 -58 18 -58 18 -115 0z m236 -396 c78
-134 142 -249 143 -255 0 -7 -8 -22 -18 -34 -40 -49 -57 -30 -210 236 -78 135
-142 254 -142 264 0 27 37 50 64 41 14 -5 69 -90 163 -252z"/>
<path d="M3565 4461 c-40 -10 -86 -35 -106 -57 -9 -11 -83 -134 -165 -274
-133 -230 -148 -261 -152 -311 -8 -98 44 -177 137 -208 64 -21 133 -6 185 40
29 25 249 388 321 529 35 68 14 182 -41 231 -47 41 -125 63 -179 50z m83 -192
c2 -16 -42 -102 -133 -259 -129 -225 -154 -260 -181 -260 -19 0 -44 29 -44 51
0 15 196 367 274 491 23 37 78 21 84 -23z"/>
<path d="M3722 3713 c-26 -12 -51 -48 -127 -182 -52 -92 -95 -178 -95 -192 0
-14 33 -84 74 -155 41 -71 71 -133 66 -139 -4 -5 -31 -73 -59 -150 -29 -77
-56 -143 -60 -147 -3 -4 -68 100 -144 231 -153 266 -165 284 -210 309 -30 16
-119 17 -1282 20 -863 2 -1266 -1 -1301 -8 -37 -8 -61 -21 -83 -43 -30 -30
-427 -707 -477 -812 -29 -60 -30 -97 -5 -150 23 -48 1707 -1811 1755 -1837 38
-21 117 -23 154 -4 16 8 204 198 419 423 215 224 400 416 411 426 20 18 20 17
42 -50 13 -37 45 -113 73 -167 155 -305 425 -521 767 -614 87 -24 111 -26 290
-26 179 0 203 3 293 27 332 89 607 307 759 603 247 477 153 1041 -234 1409
-102 97 -192 159 -320 220 l-93 44 -58 153 c-31 84 -57 156 -57 160 0 4 32 62
70 129 39 68 70 134 70 149 0 15 -41 98 -94 191 -75 132 -100 167 -127 181
-48 25 -367 26 -417 1z m385 -208 c23 -38 43 -76 43 -82 0 -10 -37 -13 -154
-13 -149 0 -155 -1 -170 -22 -23 -32 -20 -81 5 -104 18 -17 41 -19 170 -22 82
-2 149 -7 149 -10 0 -4 -20 -38 -43 -77 l-42 -70 -132 -3 -131 -3 -19 28 c-11
15 -43 70 -72 121 l-53 92 53 93 c29 50 61 105 72 120 l19 28 131 -3 132 -3
42 -70z m-2822 -385 c-21 -40 -19 -72 5 -98 30 -32 82 -30 109 5 12 14 23 24
26 21 3 -2 72 -141 153 -309 l149 -304 -300 -3 c-165 -1 -302 0 -304 2 -3 2
27 70 66 152 39 81 71 158 71 171 0 57 -87 86 -126 41 -11 -13 -46 -78 -79
-145 -33 -68 -62 -123 -65 -123 -6 1 -300 601 -300 613 0 4 137 7 305 7 l306
0 -16 -30z m771 -182 c-57 -117 -126 -258 -154 -313 l-50 -100 -151 307 c-83
170 -151 310 -151 313 0 3 137 5 305 5 l304 0 -103 -212z m955 190 c-12 -32
-288 -589 -295 -595 -4 -4 -306 601 -306 614 0 1 137 3 305 3 l305 0 -9 -22z
m-2480 -696 c-184 -1 -336 -1 -338 1 -2 3 79 147 179 321 l183 316 155 -317
156 -318 -335 -3z m2807 313 l179 -310 -335 -3 c-184 -1 -337 -1 -339 1 -6 6
302 627 309 624 4 -1 88 -141 186 -312z m-898 -6 l150 -304 -301 -3 c-166 -1
-304 -1 -306 1 -2 3 64 143 147 312 82 170 153 306 155 303 3 -3 73 -142 155
-309z m1685 140 c15 -38 25 -72 23 -74 -3 -3 -53 -1 -111 4 -59 4 -155 4 -214
0 -58 -5 -108 -7 -110 -5 -2 2 8 35 23 75 l26 71 168 0 167 0 28 -71z m5 -235
c386 -73 704 -373 807 -760 22 -86 26 -120 27 -254 0 -132 -3 -168 -23 -244
-46 -175 -133 -339 -250 -468 -113 -125 -302 -240 -486 -295 -84 -25 -103 -27
-275 -27 -172 0 -191 2 -275 27 -370 111 -642 391 -734 757 l-19 74 62 67 61
67 8 -52 c50 -303 181 -514 415 -667 232 -152 543 -182 811 -79 153 59 317
189 411 324 120 175 180 425 151 628 -13 95 -26 124 -62 138 -35 15 -65 6 -86
-26 -14 -22 -14 -35 -3 -120 21 -160 -1 -297 -71 -440 -124 -254 -383 -414
-669 -414 -50 0 -123 7 -163 16 -95 21 -237 91 -314 154 -187 155 -294 410
-268 645 l7 66 243 254 c163 169 247 265 256 289 19 51 58 61 244 61 138 0
156 -3 230 -28 116 -41 208 -99 303 -194 92 -91 117 -100 159 -61 15 14 23 33
23 56 0 31 -11 46 -93 126 -130 128 -275 207 -439 240 -99 20 -277 20 -375 0
-86 -18 -83 -19 -126 58 l-27 46 34 12 c124 41 360 52 506 24z m-2724 -1104
c139 -404 253 -741 253 -747 1 -7 -299 301 -666 685 -366 383 -689 721 -717
750 l-51 52 464 -2 464 -3 253 -735z m984 732 c0 -4 -56 -171 -125 -370 -87
-253 -123 -371 -119 -388 13 -50 82 -71 120 -36 12 11 71 170 154 410 l134
392 459 0 c252 0 457 -4 455 -8 -4 -12 -1421 -1492 -1424 -1489 -2 2 29 98 69
214 l72 211 -21 29 c-26 35 -83 44 -111 16 -10 -10 -58 -136 -108 -281 -49
-144 -92 -258 -96 -254 -9 10 -530 1534 -529 1550 0 9 114 12 535 12 294 0
535 -3 535 -8z"/>
</g>
</svg>
