<?xml version="1.0" standalone="no"?>
<!DOCTYPE svg PUBLIC "-//W3C//DTD SVG 20010904//EN"
 "http://www.w3.org/TR/2001/REC-SVG-20010904/DTD/svg10.dtd">
<svg version="1.0" xmlns="http://www.w3.org/2000/svg"
 width="512.000000pt" height="512.000000pt" viewBox="0 0 512.000000 512.000000"
 preserveAspectRatio="xMidYMid meet">

<g transform="translate(0.000000,512.000000) scale(0.100000,-0.100000)"
fill="#000000" stroke="none">
<path d="M1719 4550 c-9 -5 -85 -113 -169 -240 l-153 -230 -155 0 c-92 0 -171
-5 -196 -12 -55 -16 -138 -99 -154 -154 -17 -60 -17 -3128 0 -3188 16 -55 99
-138 154 -154 60 -17 2968 -17 3028 0 55 16 138 99 154 154 7 23 12 92 12 153
0 105 -1 113 -25 136 -32 33 -78 33 -110 0 -24 -23 -25 -31 -25 -135 0 -104
-1 -112 -25 -135 l-24 -25 -696 0 -695 0 0 1330 c0 732 2 1330 4 1330 2 0 61
-63 131 -140 117 -129 129 -140 162 -140 26 0 42 8 61 28 15 16 182 201 372
410 l345 382 158 0 c154 0 158 -1 182 -25 l25 -24 0 -1151 0 -1151 25 -24 c32
-33 78 -33 110 0 l25 24 0 1152 c0 875 -3 1162 -12 1193 -16 55 -99 138 -154
154 -25 7 -104 12 -196 12 l-155 0 -153 230 c-84 127 -161 235 -171 240 -24
13 -1658 13 -1680 0z m1155 -487 c-168 -186 -309 -338 -314 -338 -5 0 -146
152 -314 338 l-306 337 620 0 620 0 -306 -337z m-759 -94 c335 -370 336 -371
318 -393 -18 -20 -199 -222 -233 -259 -16 -18 -33 -1 -336 334 -175 194 -318
356 -316 361 5 18 216 328 223 328 4 0 159 -167 344 -371z m1348 211 c59 -88
108 -164 109 -168 2 -5 -141 -167 -316 -361 -303 -335 -320 -352 -336 -334
-34 37 -215 239 -233 259 -18 22 -17 23 318 393 185 204 340 371 344 371 4 0
56 -72 114 -160z m-1713 -642 c190 -209 357 -394 372 -410 19 -20 35 -28 61
-28 33 0 45 11 162 140 70 77 129 140 131 140 2 0 4 -598 4 -1330 l0 -1330
-695 0 -696 0 -24 25 -25 24 0 1551 0 1551 25 24 c24 24 28 25 182 25 l158 0
345 -382z"/>
<path d="M2905 2835 l-25 -24 0 -329 c0 -223 4 -340 12 -363 18 -56 55 -98
181 -209 154 -136 190 -160 259 -167 83 -8 143 16 226 90 38 34 101 89 139
122 77 66 114 112 131 164 8 23 12 140 12 363 l0 329 -25 24 -24 25 -431 0
-431 0 -24 -25z m775 -404 c0 -242 -2 -271 -17 -289 -16 -17 -124 -114 -236
-210 -62 -53 -80 -47 -214 72 -65 57 -130 115 -145 129 l-28 26 0 271 0 270
320 0 320 0 0 -269z"/>
<path d="M4105 1335 c-50 -49 -15 -135 55 -135 41 0 80 39 80 80 0 41 -39 80
-80 80 -19 0 -40 -9 -55 -25z"/>
</g>
</svg>
