<?xml version="1.0" standalone="no"?>
<!DOCTYPE svg PUBLIC "-//W3C//DTD SVG 20010904//EN"
 "http://www.w3.org/TR/2001/REC-SVG-20010904/DTD/svg10.dtd">
<svg version="1.0" xmlns="http://www.w3.org/2000/svg"
 width="512.000000pt" height="512.000000pt" viewBox="0 0 512.000000 512.000000"
 preserveAspectRatio="xMidYMid meet">

<g transform="translate(0.000000,512.000000) scale(0.100000,-0.100000)"
fill="#000000" stroke="none">
<path d="M2083 3739 c-60 -23 -137 -101 -174 -176 -19 -38 -24 -64 -24 -123 0
-76 7 -97 55 -175 l22 -35 -158 -77 c-151 -75 -160 -78 -238 -81 -64 -3 -93 1
-136 17 -95 35 -132 71 -239 229 -54 81 -116 164 -138 184 -84 81 -225 116
-339 83 -73 -21 -145 -65 -183 -114 -38 -48 -243 -426 -282 -521 -79 -188
-122 -474 -103 -676 l11 -108 -79 -195 c-43 -107 -78 -204 -78 -214 0 -36 21
-57 103 -101 231 -125 526 -222 827 -273 97 -16 240 -18 1804 -20 1503 -3
1709 -2 1782 12 257 48 458 208 572 453 33 73 34 80 28 154 -14 171 -83 315
-211 443 -150 150 -275 201 -530 215 -194 11 -225 20 -407 125 -134 77 -134
77 -130 110 8 66 -70 108 -126 69 -22 -15 -27 -13 -115 37 -169 97 -164 92
-159 132 8 66 -71 112 -124 72 -10 -8 -24 -15 -30 -15 -6 0 -65 32 -132 71
l-120 70 5 39 c10 74 -70 117 -130 69 l-27 -20 -285 167 c-157 91 -302 173
-323 180 -53 19 -129 16 -189 -7z m160 -155 c36 -18 452 -260 479 -279 15 -10
8 -19 -63 -71 -45 -32 -85 -67 -90 -76 -16 -30 -10 -68 16 -93 42 -43 70 -34
194 59 l112 84 124 -72 c68 -39 124 -74 125 -77 0 -3 -36 -32 -81 -65 -44 -32
-85 -67 -90 -76 -16 -30 -10 -68 16 -93 42 -43 70 -34 195 60 62 47 115 85
116 85 2 0 245 -140 252 -145 1 -1 -37 -32 -87 -69 -49 -37 -92 -74 -95 -82
-12 -32 -5 -66 19 -89 42 -43 70 -34 195 60 62 47 117 85 122 85 5 0 74 -38
154 -85 80 -47 171 -96 202 -109 66 -28 193 -56 252 -56 81 0 119 -82 64 -137
l-26 -26 -137 6 c-393 18 -744 109 -1093 283 -176 87 -241 129 -637 409 -331
234 -348 248 -391 312 -56 86 -60 135 -16 201 48 70 104 89 169 56z m-1337
-170 c31 -16 60 -52 141 -170 142 -209 227 -282 368 -319 69 -18 183 -20 254
-4 28 6 130 50 228 98 l177 87 261 -185 c353 -250 535 -369 676 -441 87 -44
117 -65 112 -74 -5 -7 -89 -122 -188 -255 -173 -232 -181 -241 -210 -237 -16
3 -80 10 -140 16 l-111 12 -22 70 c-58 183 -202 322 -487 469 -77 40 -314 132
-790 304 -374 136 -685 250 -692 254 -13 7 141 297 180 340 57 61 161 76 243
35z m198 -773 c377 -138 727 -271 778 -296 123 -62 251 -147 313 -210 57 -56
114 -158 93 -163 -8 -1 -235 27 -505 63 -270 36 -503 65 -518 65 -35 0 -75
-41 -75 -78 0 -32 30 -69 63 -77 12 -3 189 -27 392 -54 1077 -145 1400 -178
2000 -202 510 -21 839 -1 1124 67 57 13 106 23 108 20 2 -2 -25 -32 -60 -67
-76 -76 -166 -131 -262 -162 l-70 -22 -1715 0 -1715 0 -130 23 c-238 41 -445
106 -654 203 -50 23 -90 47 -88 53 3 6 26 65 52 131 27 66 51 124 56 129 4 4
76 -1 161 -13 194 -27 216 -26 245 1 44 41 21 119 -39 132 -13 3 -95 15 -183
26 -88 12 -161 23 -163 25 -11 11 -13 206 -3 295 18 155 75 360 100 360 5 0
318 -112 695 -249z m3554 -227 c147 -73 261 -226 292 -392 8 -43 7 -44 -26
-58 -58 -24 -272 -73 -414 -95 -181 -27 -492 -34 -850 -20 -243 10 -690 37
-712 44 -6 2 304 423 331 450 4 4 62 -10 127 -32 281 -94 610 -151 868 -151
110 0 151 15 211 75 54 53 75 102 75 174 0 51 6 51 98 5z"/>
<path d="M901 2114 c-27 -35 -26 -66 2 -100 31 -35 77 -37 112 -4 51 48 16
130 -55 130 -30 0 -43 -6 -59 -26z"/>
</g>
</svg>
