<?xml version="1.0" standalone="no"?>
<!DOCTYPE svg PUBLIC "-//W3C//DTD SVG 20010904//EN"
 "http://www.w3.org/TR/2001/REC-SVG-20010904/DTD/svg10.dtd">
<svg version="1.0" xmlns="http://www.w3.org/2000/svg"
 width="512.000000pt" height="512.000000pt" viewBox="0 0 512.000000 512.000000"
 preserveAspectRatio="xMidYMid meet">

<g transform="translate(0.000000,512.000000) scale(0.100000,-0.100000)"
fill="#000000" stroke="none">
<path d="M4754 5108 c-30 -14 -44 -50 -44 -111 0 -87 48 -131 115 -103 26 11
36 24 46 54 33 110 -34 201 -117 160z"/>
<path d="M4514 4866 c-51 -23 -61 -90 -19 -131 21 -22 33 -25 90 -25 57 0 69
3 90 25 33 32 34 83 1 114 -30 28 -117 38 -162 17z"/>
<path d="M4934 4866 c-58 -26 -65 -103 -12 -140 26 -19 115 -22 151 -5 48 22
60 83 25 124 -29 32 -115 44 -164 21z"/>
<path d="M4735 4675 c-22 -21 -25 -33 -25 -90 0 -57 3 -69 25 -90 26 -27 72
-33 105 -15 27 14 44 79 36 134 -12 80 -89 113 -141 61z"/>
<path d="M740 4597 c-13 -7 -30 -24 -37 -37 -10 -20 -12 -429 -10 -2003 l2
-1979 28 -24 28 -24 679 0 679 0 27 23 c25 22 35 67 220 991 106 533 195 970
197 972 1 1 90 -435 197 -969 169 -849 197 -975 216 -994 l23 -23 686 0 686 0
24 25 25 24 0 1988 c-1 1547 -3 1992 -13 2004 -7 9 -22 21 -34 27 -33 18
-3588 17 -3623 -1z m3508 -344 l-3 -188 -1692 -3 -1693 -2 0 190 0 190 1695 0
1695 0 -2 -187z m-2712 -415 c-25 -214 -160 -415 -346 -512 -81 -43 -202 -76
-277 -76 l-53 0 0 325 0 325 341 0 342 0 -7 -62z m1884 -29 c35 -170 145 -353
278 -462 133 -109 276 -168 454 -189 l98 -11 0 -1013 0 -1014 -361 0 -361 0
-29 -29 c-38 -38 -38 -74 0 -112 l29 -29 361 0 361 0 0 -125 0 -125 -582 2
-582 3 -23 110 c-12 61 -22 116 -23 123 0 9 27 12 100 12 136 0 171 18 170 88
-1 65 -41 82 -188 82 l-119 0 -186 932 c-176 877 -188 934 -212 956 -42 36
-104 23 -124 -27 -6 -14 -93 -438 -194 -941 l-183 -915 -204 -5 c-113 -3 -213
-9 -223 -14 -40 -19 -50 -88 -18 -127 19 -24 23 -24 216 -27 147 -2 196 -6
192 -15 -2 -7 -14 -63 -27 -124 l-23 -113 -579 0 -578 0 0 125 0 125 281 0
281 0 30 30 c25 26 29 36 24 63 -4 18 -15 41 -27 52 -18 19 -35 20 -304 23
l-285 3 0 978 0 978 78 7 c316 29 585 222 702 506 34 81 60 193 60 253 0 24 3
47 7 50 3 4 387 6 851 5 l845 -3 17 -86z m828 -201 l2 -288 -47 0 c-80 0 -184
27 -272 71 -66 33 -103 60 -166 123 -106 105 -154 196 -189 359 l-6 27 337 -2
338 -3 3 -287z"/>
<path d="M271 631 c-42 -42 -39 -156 6 -191 32 -25 74 -26 104 -1 19 16 24 30
27 89 4 65 2 73 -21 96 -32 32 -88 35 -116 7z"/>
<path d="M44 398 c-23 -11 -44 -48 -44 -77 0 -59 90 -96 172 -72 70 21 85 104
26 145 -26 18 -120 21 -154 4z"/>
<path d="M445 385 c-33 -32 -34 -84 -2 -112 44 -42 149 -42 187 -1 28 31 26
83 -5 113 -21 22 -33 25 -90 25 -57 0 -69 -3 -90 -25z"/>
<path d="M293 225 c-40 -17 -59 -71 -49 -139 11 -70 61 -102 119 -75 33 15 47
49 47 114 0 85 -51 129 -117 100z"/>
</g>
</svg>
